<svg width="13" height="13" viewBox="0 0 13 13" fill="none" xmlns="http://www.w3.org/2000/svg">
<path d="M1.72074 0.841897L1.54297 0.662115L1.3652 0.841897L0.822231 1.39101L0.64842 1.56679L0.822231 1.74257L5.59671 6.5711L0.96285 11.2574L0.789039 11.4332L0.962849 11.609L1.50582 12.1581L1.68359 12.3379L1.86136 12.1581L6.49126 7.47578L11.1386 12.1758L11.3164 12.3556L11.4942 12.1758L12.0371 11.6267L12.211 11.4509L12.0371 11.2751L7.38581 6.57111L12.1778 1.7249L12.3516 1.54912L12.1778 1.37334L11.6348 0.824221L11.457 0.64444L11.2793 0.824221L6.49126 5.66643L1.72074 0.841897Z" fill="white" stroke="white" stroke-width="0.5"/>
</svg>
